<svg width="24" height="24" viewBox="0 0 24 24" fill="none" xmlns="http://www.w3.org/2000/svg">
<path d="M4.5 23.25C4.65378 23.2499 4.8038 23.2025 4.92975 23.1143L12 18.1658L19.0702 23.1157C19.1827 23.1944 19.3146 23.2407 19.4516 23.2495C19.5886 23.2584 19.7253 23.2295 19.847 23.166C19.9687 23.1025 20.0706 23.0068 20.1417 22.8894C20.2127 22.7719 20.2502 22.6373 20.25 22.5V4.35C20.249 3.39553 19.8694 2.48043 19.1945 1.80551C18.5196 1.1306 17.6045 0.750993 16.65 0.75H7.35C6.39552 0.750993 5.48043 1.1306 4.80551 1.80551C4.13059 2.48043 3.75099 3.39553 3.75 4.35V22.5C3.75 22.6989 3.82902 22.8897 3.96967 23.0303C4.11032 23.171 4.30109 23.25 4.5 23.25ZM12 16.5C11.8462 16.5001 11.6962 16.5475 11.5702 16.6357L5.25 21.0592V4.35C5.25 3.79305 5.47125 3.2589 5.86507 2.86508C6.2589 2.47125 6.79304 2.25 7.35 2.25H16.65C17.207 2.25 17.7411 2.47125 18.1349 2.86508C18.5288 3.2589 18.75 3.79305 18.75 4.35V21.0592L12.4297 16.6343C12.3036 16.5465 12.1536 16.4997 12 16.5Z" fill="#70747E"/>
</svg>
